<svg width="19" height="19" viewBox="0 0 19 19" fill="none" xmlns="http://www.w3.org/2000/svg">
<path d="M9.49121 18.7334C8.24902 18.7334 7.08008 18.4961 5.98438 18.0215C4.88867 17.5527 3.92188 16.8994 3.08398 16.0615C2.25195 15.2236 1.59863 14.2568 1.12402 13.1611C0.649414 12.0654 0.412109 10.8965 0.412109 9.6543C0.412109 8.41211 0.649414 7.24316 1.12402 6.14746C1.59863 5.05176 2.25195 4.08789 3.08398 3.25586C3.92188 2.41797 4.88574 1.76172 5.97559 1.28711C7.07129 0.8125 8.24023 0.575195 9.48242 0.575195C10.7305 0.575195 11.9023 0.8125 12.998 1.28711C14.0938 1.76172 15.0605 2.41797 15.8984 3.25586C16.7363 4.08789 17.3926 5.05176 17.8672 6.14746C18.3418 7.24316 18.5791 8.41211 18.5791 9.6543C18.5791 10.8965 18.3418 12.0654 17.8672 13.1611C17.3926 14.2568 16.7363 15.2236 15.8984 16.0615C15.0605 16.8994 14.0938 17.5527 12.998 18.0215C11.9023 18.4961 10.7334 18.7334 9.49121 18.7334ZM9.49121 14.7871C9.6084 14.7871 9.70508 14.749 9.78125 14.6729C9.86328 14.5967 9.9043 14.4941 9.9043 14.3652V13.7588C10.6484 13.6885 11.2666 13.4512 11.7588 13.0469C12.251 12.6367 12.4971 12.083 12.4971 11.3857C12.4971 10.7646 12.2949 10.2666 11.8906 9.8916C11.4922 9.5166 10.8975 9.25586 10.1064 9.10938L9.9043 9.06543V6.78906C10.1973 6.8418 10.4434 6.95313 10.6426 7.12305C10.8418 7.28711 10.9854 7.50391 11.0732 7.77344C11.208 8.0957 11.4248 8.25684 11.7236 8.25684C11.9111 8.25684 12.0605 8.20117 12.1719 8.08984C12.2891 7.97852 12.3477 7.83496 12.3477 7.65918C12.3477 7.60645 12.3418 7.55371 12.3301 7.50098C12.3242 7.44824 12.3125 7.39844 12.2949 7.35156C12.1719 6.87695 11.8965 6.48145 11.4688 6.16504C11.041 5.84863 10.5195 5.6582 9.9043 5.59375V4.9873C9.9043 4.8584 9.86328 4.75586 9.78125 4.67969C9.70508 4.60352 9.6084 4.56543 9.49121 4.56543C9.36816 4.56543 9.26562 4.60352 9.18359 4.67969C9.10742 4.75586 9.06934 4.8584 9.06934 4.9873V5.59375C8.35449 5.66406 7.76562 5.9043 7.30273 6.31445C6.83984 6.72461 6.6084 7.25195 6.6084 7.89648C6.6084 8.48828 6.80469 8.96582 7.19727 9.3291C7.58984 9.68652 8.16699 9.95312 8.92871 10.1289L9.06934 10.1641V12.5723C8.7002 12.5195 8.40723 12.3994 8.19043 12.2119C7.97949 12.0244 7.83594 11.7988 7.75977 11.5352C7.69531 11.3652 7.61035 11.2422 7.50488 11.166C7.39941 11.084 7.26758 11.043 7.10938 11.043C6.92188 11.043 6.76953 11.1016 6.65234 11.2188C6.54102 11.3301 6.48535 11.4766 6.48535 11.6582C6.48535 11.7109 6.48828 11.7637 6.49414 11.8164C6.50586 11.8691 6.52051 11.9219 6.53809 11.9746C6.66699 12.4668 6.95703 12.8711 7.4082 13.1875C7.86523 13.5039 8.41895 13.6885 9.06934 13.7412V14.3652C9.06934 14.4941 9.10742 14.5967 9.18359 14.6729C9.26562 14.749 9.36816 14.7871 9.49121 14.7871ZM9.06934 8.85449L9.00781 8.83691C8.64453 8.72559 8.375 8.58789 8.19922 8.42383C8.0293 8.25977 7.94434 8.05469 7.94434 7.80859C7.94434 7.55664 8.04395 7.33691 8.24316 7.14941C8.44824 6.95605 8.72363 6.83301 9.06934 6.78027V8.85449ZM9.9043 10.3662L10.0801 10.4102C10.4785 10.5156 10.7568 10.6562 10.915 10.832C11.0791 11.002 11.1611 11.2188 11.1611 11.4824C11.1611 11.7695 11.0557 12.0127 10.8447 12.2119C10.6396 12.4053 10.3262 12.5254 9.9043 12.5723V10.3662Z" fill="#4A409D"/>
</svg>
