<svg width="19" height="19" viewBox="0 0 19 19" fill="none" xmlns="http://www.w3.org/2000/svg">
<path d="M9.49121 18.7334C8.24902 18.7334 7.08008 18.4961 5.98438 18.0215C4.88867 17.5527 3.92188 16.8994 3.08398 16.0615C2.25195 15.2236 1.59863 14.2568 1.12402 13.1611C0.649414 12.0654 0.412109 10.8965 0.412109 9.6543C0.412109 8.41211 0.649414 7.24316 1.12402 6.14746C1.59863 5.05176 2.25195 4.08789 3.08398 3.25586C3.92188 2.41797 4.88574 1.76172 5.97559 1.28711C7.07129 0.8125 8.24023 0.575195 9.48242 0.575195C10.7305 0.575195 11.9023 0.8125 12.998 1.28711C14.0938 1.76172 15.0605 2.41797 15.8984 3.25586C16.7363 4.08789 17.3926 5.05176 17.8672 6.14746C18.3418 7.24316 18.5791 8.41211 18.5791 9.6543C18.5791 10.8965 18.3418 12.0654 17.8672 13.1611C17.3926 14.2568 16.7363 15.2236 15.8984 16.0615C15.0605 16.8994 14.0938 17.5527 12.998 18.0215C11.9023 18.4961 10.7334 18.7334 9.49121 18.7334ZM7.44336 7.3252H13.9473C14.1113 7.3252 14.249 7.26953 14.3604 7.1582C14.4775 7.04102 14.5361 6.90039 14.5361 6.73633C14.5361 6.57227 14.4775 6.43457 14.3604 6.32324C14.249 6.20605 14.1113 6.14746 13.9473 6.14746H7.44336C7.2793 6.14746 7.13867 6.20605 7.02148 6.32324C6.91016 6.43457 6.85449 6.57227 6.85449 6.73633C6.85449 6.89453 6.91309 7.03223 7.03027 7.14941C7.14746 7.2666 7.28516 7.3252 7.44336 7.3252ZM7.44336 13.1875H13.9473C14.1113 13.1875 14.249 13.1318 14.3604 13.0205C14.4775 12.9033 14.5361 12.7598 14.5361 12.5898C14.5361 12.4316 14.4775 12.2969 14.3604 12.1855C14.249 12.0684 14.1113 12.0098 13.9473 12.0098H7.44336C7.28516 12.0098 7.14746 12.0684 7.03027 12.1855C6.91309 12.2969 6.85449 12.4316 6.85449 12.5898C6.85449 12.7539 6.91016 12.8945 7.02148 13.0117C7.13867 13.1289 7.2793 13.1875 7.44336 13.1875ZM7.44336 10.252H13.9473C14.1113 10.252 14.249 10.1963 14.3604 10.085C14.4775 9.97363 14.5361 9.83301 14.5361 9.66309C14.5361 9.49902 14.4775 9.36133 14.3604 9.25C14.249 9.13867 14.1113 9.08301 13.9473 9.08301H7.44336C7.2793 9.08301 7.13867 9.1416 7.02148 9.25879C6.91016 9.37012 6.85449 9.50488 6.85449 9.66309C6.85449 9.82715 6.91309 9.96777 7.03027 10.085C7.14746 10.1963 7.28516 10.252 7.44336 10.252ZM5.2373 7.54492C5.45996 7.54492 5.65039 7.46582 5.80859 7.30762C5.9668 7.14355 6.0459 6.95313 6.0459 6.73633C6.0459 6.50781 5.9668 6.31445 5.80859 6.15625C5.65039 5.99805 5.45996 5.91895 5.2373 5.91895C5.01465 5.91895 4.82422 5.99805 4.66602 6.15625C4.50781 6.31445 4.42871 6.50781 4.42871 6.73633C4.42871 6.95898 4.50781 7.14941 4.66602 7.30762C4.82422 7.46582 5.01465 7.54492 5.2373 7.54492ZM5.2373 10.4717C5.45996 10.4717 5.65039 10.3926 5.80859 10.2344C5.9668 10.0762 6.0459 9.88574 6.0459 9.66309C6.0459 9.44629 5.9668 9.25879 5.80859 9.10059C5.65039 8.93652 5.45996 8.85449 5.2373 8.85449C5.01465 8.85449 4.82422 8.93359 4.66602 9.0918C4.50781 9.25 4.42871 9.44043 4.42871 9.66309C4.42871 9.8916 4.50781 10.085 4.66602 10.2432C4.82422 10.3955 5.01465 10.4717 5.2373 10.4717ZM5.2373 13.4072C5.45996 13.4072 5.65039 13.3281 5.80859 13.1699C5.9668 13.0117 6.0459 12.8184 6.0459 12.5898C6.0459 12.373 5.9668 12.1855 5.80859 12.0273C5.65039 11.8633 5.45996 11.7812 5.2373 11.7812C5.01465 11.7812 4.82422 11.8633 4.66602 12.0273C4.50781 12.1855 4.42871 12.373 4.42871 12.5898C4.42871 12.8184 4.50781 13.0117 4.66602 13.1699C4.82422 13.3281 5.01465 13.4072 5.2373 13.4072Z" fill="#4A409D"/>
</svg>
