<svg width="19" height="19" viewBox="0 0 19 19" fill="none" xmlns="http://www.w3.org/2000/svg">
<path d="M9.49121 18.7334C8.24902 18.7334 7.08008 18.4961 5.98438 18.0215C4.88867 17.5527 3.92188 16.8994 3.08398 16.0615C2.25195 15.2236 1.59863 14.2568 1.12402 13.1611C0.649414 12.0654 0.412109 10.8965 0.412109 9.6543C0.412109 8.41211 0.649414 7.24316 1.12402 6.14746C1.59863 5.05176 2.25195 4.08789 3.08398 3.25586C3.92188 2.41797 4.88574 1.76172 5.97559 1.28711C7.07129 0.8125 8.24023 0.575195 9.48242 0.575195C10.7305 0.575195 11.9023 0.8125 12.998 1.28711C14.0938 1.76172 15.0605 2.41797 15.8984 3.25586C16.7363 4.08789 17.3926 5.05176 17.8672 6.14746C18.3418 7.24316 18.5791 8.41211 18.5791 9.6543C18.5791 10.8965 18.3418 12.0654 17.8672 13.1611C17.3926 14.2568 16.7363 15.2236 15.8984 16.0615C15.0605 16.8994 14.0938 17.5527 12.998 18.0215C11.9023 18.4961 10.7334 18.7334 9.49121 18.7334ZM5.4834 12.792H13.4902C13.8652 12.792 14.1729 12.6748 14.4131 12.4404C14.6533 12.2061 14.7734 11.9043 14.7734 11.5352V6.8418C14.7734 6.47266 14.6533 6.1709 14.4131 5.93652C14.1729 5.69629 13.8652 5.57617 13.4902 5.57617H5.4834C5.1084 5.57617 4.80078 5.69629 4.56055 5.93652C4.32617 6.1709 4.20898 6.47266 4.20898 6.8418V11.5352C4.20898 11.9043 4.32617 12.2061 4.56055 12.4404C4.80078 12.6748 5.1084 12.792 5.4834 12.792ZM5.68555 11.7461C5.56836 11.7461 5.47461 11.7109 5.4043 11.6406C5.33398 11.5645 5.29883 11.4678 5.29883 11.3506V7.01758C5.29883 6.90039 5.33398 6.80664 5.4043 6.73633C5.47461 6.66602 5.56836 6.63086 5.68555 6.63086H13.2969C13.4082 6.63086 13.499 6.66602 13.5693 6.73633C13.6455 6.80664 13.6836 6.90039 13.6836 7.01758V11.3506C13.6836 11.4678 13.6455 11.5645 13.5693 11.6406C13.499 11.7109 13.4082 11.7461 13.2969 11.7461H5.68555ZM7.12695 14.708H11.8818C12.0283 14.708 12.1514 14.6582 12.251 14.5586C12.3506 14.459 12.4004 14.333 12.4004 14.1807C12.4004 14.04 12.3506 13.9199 12.251 13.8203C12.1514 13.7148 12.0283 13.6621 11.8818 13.6621H7.12695C6.97461 13.6621 6.84863 13.7148 6.74902 13.8203C6.64941 13.9199 6.59961 14.04 6.59961 14.1807C6.59961 14.333 6.64941 14.459 6.74902 14.5586C6.84863 14.6582 6.97461 14.708 7.12695 14.708Z" fill="#4A409D"/>
</svg>
